# xmcd
#
# Track frame offsets:
#	150
#	4420
#	18105
#	38299
#	55107
#	69197
#	87014
#	106249
#	113370
#	133836
#	158581
#	178910
#	194995
#
# Disc length: 2809 seconds
#
# Revision: 1
# Processed by: cddbd v1.5.1PL2 Copyright (c) Steve Scherf et al.
# Submitted via: audiograbber 1.83.01
#
DISCID=9a0af70d
DTITLE=Poutnici - Plac a smich
DYEAR=2003
DGENRE=Bluegrass
TTITLE0=Predehra 1
TTITLE1=Smich a plac
TTITLE2=Ona a on
TTITLE3=Jeden za vsechny
TTITLE4=Vousatej chlap
TTITLE5=Stara posta
TTITLE6=Osmiramenny svicen
TTITLE7=Predehra 2
TTITLE8=Hotel Hillary
TTITLE9=Led trha breh
TTITLE10=Pojdme se napit
TTITLE11=Rondo alla Turca
TTITLE12=Altan
EXTD=
EXTT0=
EXTT1=
EXTT2=
EXTT3=
EXTT4=
EXTT5=
EXTT6=
EXTT7=
EXTT8=
EXTT9=
EXTT10=
EXTT11=
EXTT12=
PLAYORDER=
